<?xml version="1.0" encoding="UTF-8" standalone="no"?>
<!-- Created with Inkscape (http://www.inkscape.org/) -->

<svg
   width="327.89655"
   height="326.00003"
   viewBox="0 0 327.89655 326.00003"
   version="1.1"
   id="svg1"
   xml:space="preserve"
   xmlns:xlink="http://www.w3.org/1999/xlink"
   xmlns="http://www.w3.org/2000/svg"><defs
     id="defs1"><linearGradient
       id="linearGradient10"><stop
         style="stop-color:#d91818;stop-opacity:1;"
         offset="0"
         id="stop10" /><stop
         style="stop-color:#f7931a;stop-opacity:1;"
         offset="0.2"
         id="stop12" /><stop
         style="stop-color:#f4b731;stop-opacity:1;"
         offset="0.39811134"
         id="stop13" /><stop
         style="stop-color:#38ba27;stop-opacity:1;"
         offset="0.60263419"
         id="stop14" /><stop
         style="stop-color:#4294ff;stop-opacity:1;"
         offset="0.7963469"
         id="stop15" /><stop
         style="stop-color:#9945ff;stop-opacity:1;"
         offset="1"
         id="stop11" /></linearGradient><linearGradient
       id="linearGradient3"><stop
         style="stop-color:#d91818;stop-opacity:1;"
         offset="0"
         id="stop3" /><stop
         style="stop-color:#f7931a;stop-opacity:1;"
         offset="0.19980119"
         id="stop5" /><stop
         style="stop-color:#f4b731;stop-opacity:1;"
         offset="0.40000001"
         id="stop6" /><stop
         style="stop-color:#38ba27;stop-opacity:1;"
         offset="0.60000002"
         id="stop7" /><stop
         style="stop-color:#4294ff;stop-opacity:1;"
         offset="0.80000001"
         id="stop8" /><stop
         style="stop-color:#9945ff;stop-opacity:1;"
         offset="1"
         id="stop4" /></linearGradient><linearGradient
       xlink:href="#linearGradient3"
       id="linearGradient8"
       x1="213.37529"
       y1="264.41989"
       x2="312.63025"
       y2="264.41989"
       gradientUnits="userSpaceOnUse" /><linearGradient
       xlink:href="#linearGradient10"
       id="linearGradient11"
       x1="187.0919"
       y1="256.16223"
       x2="329.85529"
       y2="256.16223"
       gradientUnits="userSpaceOnUse" /></defs><g
     id="layer1"
     transform="translate(-91.625899,-95.516884)"><g
       id="g16"
       transform="matrix(1,0,0,1.0005515,0,-0.05267529)"><path
         style="fill:#d91818;fill-opacity:1;paint-order:stroke fill markers"
         id="path14"
         d="m 270.05066,138.19059 -14.35487,-9.64222 -14.0297,10.10951 4.73439,-16.6319 -13.95013,-10.21903 17.28089,-0.63687 5.40805,-16.425212 5.94578,16.238302 17.29249,0.0677 -13.6062,10.67268 z"
         transform="translate(0.30880579,0.77201448)" /><path
         style="fill:#f7931a;fill-opacity:1;paint-order:stroke fill markers"
         id="path14-2"
         d="m 270.05066,138.19059 -14.35487,-9.64222 -14.0297,10.10951 4.73439,-16.6319 -13.95013,-10.21903 17.28089,-0.63687 5.40805,-16.425212 5.94578,16.238302 17.29249,0.0677 -13.6062,10.67268 z"
         transform="translate(70.872927,19.613395)" /><path
         style="fill:#f4b731;fill-opacity:1;paint-order:stroke fill markers"
         id="path14-2-7"
         d="m 270.05066,138.19059 -14.35487,-9.64222 -14.0297,10.10951 4.73439,-16.6319 -13.95013,-10.21903 17.28089,-0.63687 5.40805,-16.425212 5.94578,16.238302 17.29249,0.0677 -13.6062,10.67268 z"
         transform="translate(122.36047,70.787781)" /><path
         style="fill:#38ba27;fill-opacity:1;paint-order:stroke fill markers"
         id="path14-2-7-7"
         d="m 270.05066,138.19059 -14.35487,-9.64222 -14.0297,10.10951 4.73439,-16.6319 -13.95013,-10.21903 17.28089,-0.63687 5.40805,-16.425212 5.94578,16.238302 17.29249,0.0677 -13.6062,10.67268 z"
         transform="translate(141.14491,141.68626)" /><path
         style="fill:#4294ff;fill-opacity:1;paint-order:stroke fill markers"
         id="path14-2-7-7-3"
         d="m 270.05066,138.19059 -14.35487,-9.64222 -14.0297,10.10951 4.73439,-16.6319 -13.95013,-10.21903 17.28089,-0.63687 5.40805,-16.425212 5.94578,16.238302 17.29249,0.0677 -13.6062,10.67268 z"
         transform="translate(122.35913,212.04784)" /><path
         style="fill:#9945ff;fill-opacity:1;paint-order:stroke fill markers"
         id="path14-2-7-7-3-8"
         d="m 270.05066,138.19059 -14.35487,-9.64222 -14.0297,10.10951 4.73439,-16.6319 -13.95013,-10.21903 17.28089,-0.63687 5.40805,-16.425212 5.94578,16.238302 17.29249,0.0677 -13.6062,10.67268 z"
         transform="translate(70.833418,263.60419)" /><path
         style="fill:#5f7edd;fill-opacity:1;paint-order:stroke fill markers"
         id="path14-2-7-7-3-89"
         d="m 270.05066,138.19059 -14.35487,-9.64222 -14.0297,10.10951 4.73439,-16.6319 -13.95013,-10.21903 17.28089,-0.63687 5.40805,-16.425212 5.94578,16.238302 17.29249,0.0677 -13.6062,10.67268 z"
         transform="translate(-0.07758492,282.67932)" /><path
         style="fill:#9945ff;fill-opacity:1;paint-order:stroke fill markers"
         id="path14-2-7-7-3-89-4"
         d="m 270.05066,138.19059 -14.35487,-9.64222 -14.0297,10.10951 4.73439,-16.6319 -13.95013,-10.21903 17.28089,-0.63687 5.40805,-16.425212 5.94578,16.238302 17.29249,0.0677 -13.6062,10.67268 z"
         transform="translate(-70.300079,263.30522)" /><path
         style="fill:#4294ff;fill-opacity:1;paint-order:stroke fill markers"
         id="path14-2-7-7-3-89-4-3"
         d="m 270.05066,138.19059 -14.35487,-9.64222 -14.0297,10.10951 4.73439,-16.6319 -13.95013,-10.21903 17.28089,-0.63687 5.40805,-16.425212 5.94578,16.238302 17.29249,0.0677 -13.6062,10.67268 z"
         transform="translate(-121.78689,212.48881)" /><path
         style="fill:#38ba27;fill-opacity:1;paint-order:stroke fill markers"
         id="path14-2-7-7-3-89-4-3-8"
         d="m 270.05066,138.19059 -14.35487,-9.64222 -14.0297,10.10951 4.73439,-16.6319 -13.95013,-10.21903 17.28089,-0.63687 5.40805,-16.425212 5.94578,16.238302 17.29249,0.0677 -13.6062,10.67268 z"
         transform="translate(-140.82445,141.46376)" /><path
         style="fill:#f4b731;fill-opacity:1;paint-order:stroke fill markers"
         id="path14-2-7-7-3-89-4-3-8-7"
         d="m 270.05066,138.19059 -14.35487,-9.64222 -14.0297,10.10951 4.73439,-16.6319 -13.95013,-10.21903 17.28089,-0.63687 5.40805,-16.425212 5.94578,16.238302 17.29249,0.0677 -13.6062,10.67268 z"
         transform="translate(-121.92464,71.380356)" /><path
         style="fill:#f7931a;fill-opacity:1;paint-order:stroke fill markers"
         id="path14-2-7-7-3-89-4-3-8-7-8"
         d="m 270.05066,138.19059 -14.35487,-9.64222 -14.0297,10.10951 4.73439,-16.6319 -13.95013,-10.21903 17.28089,-0.63687 5.40805,-16.425212 5.94578,16.238302 17.29249,0.0677 -13.6062,10.67268 z"
         transform="translate(-70.462873,19.266319)" /></g><g
       id="g10"
       transform="translate(-7.860912,2.620304)"><path
         style="display:inline;fill:url(#linearGradient11);fill-opacity:1;fill-rule:nonzero;stroke:none;stroke-width:1.72604;stroke-opacity:1;paint-order:stroke fill markers"
         id="path1"
         d="m 329.64743,270.81615 c -1.54269,6.56618 -4.57541,15.02664 -10.58196,23.58278 -4.38881,6.25172 -10.23287,12.34473 -17.68611,17.40926 -6.47583,4.40036 -14.03602,7.92566 -22.45709,9.96213 -7.82906,1.8933 -16.29658,2.47013 -25.06447,1.30112 -8.50035,-1.13335 -16.467,-3.81681 -23.63042,-7.76614 -7.16461,-3.95 -13.4217,-9.10838 -18.56826,-15.09192 -5.31982,-6.18497 -9.36972,-13.15026 -12.09829,-20.47829 -2.47984,-6.66005 -3.83296,-13.51594 -4.16353,-20.34065 -0.0595,-1.22773 -0.0869,-2.4756 -0.0794,-3.74259 0.0477,-8.08279 1.51443,-16.21436 4.54555,-24.03845 2.83516,-7.31825 6.99097,-14.23093 12.38953,-20.33153 5.24577,-5.92795 11.58759,-10.99808 18.80677,-14.84112 7.23846,-3.8533 15.25537,-6.41746 23.77241,-7.42282 8.80125,-1.0389 17.26848,-0.32977 25.06865,1.68378 8.40071,2.16858 15.9112,5.81522 22.31861,10.31636 7.37875,5.18351 13.12937,11.37066 17.42084,17.69179 5.86382,8.63714 8.7689,17.13845 10.21504,23.74824 -1.19314,-6.63598 -3.68473,-15.34271 -9.17239,-24.41647 -4.02018,-6.6473 -9.56416,-13.32778 -16.9147,-19.10484 -6.38279,-5.01647 -14.03316,-9.26503 -22.789,-12.0046 -8.13194,-2.54435 -17.12809,-3.75313 -26.635,-3.0539 -9.20227,0.67682 -18.02396,3.06566 -26.11585,6.96019 -8.067,3.88255 -15.2661,9.19351 -21.29437,15.56972 -6.20319,6.56122 -11.0595,14.13425 -14.40789,22.26921 -3.58159,8.7015 -5.35336,17.82745 -5.43149,26.91415 -0.0122,1.4224 0.0171,2.82422 0.0849,4.20406 0.37743,7.67786 1.98231,15.37903 4.90123,22.80611 3.21122,8.17085 7.94629,15.83088 14.07181,22.51061 5.92662,6.46284 13.0509,11.89141 21.08284,15.90345 8.03402,4.01308 16.82959,6.53605 26.04168,7.34658 9.49956,0.83581 18.52147,-0.244 26.70306,-2.67823 8.79791,-2.6176 16.51347,-6.76155 22.97284,-11.69526 7.43439,-5.67843 13.07248,-12.28582 17.18507,-18.88014 5.62261,-9.01555 8.22804,-17.69577 9.50937,-24.29259 z" /><path
         style="fill:url(#linearGradient8);fill-opacity:1;fill-rule:nonzero;stroke:none;stroke-opacity:1;paint-order:stroke fill markers"
         d="m 220.54225,270.00049 c -0.92217,0.90112 -2.15569,2.1204 -3.28071,3.43069 -0.81975,0.95476 -1.61229,1.99165 -2.22514,3.05685 -0.53518,0.9302 -0.96634,1.93729 -1.14889,3.00334 -0.17404,1.01638 -0.12007,2.08187 0.2677,3.14265 0.37868,1.03587 1.03189,1.94504 1.87262,2.7068 0.84426,0.76496 1.84839,1.35805 2.92392,1.81166 0.62741,0.26462 1.28228,0.48283 1.95007,0.66003 1.69509,0.44979 3.64164,0.69571 5.80471,0.76306 2.86874,0.0893 6.14448,-0.13488 9.74908,-0.62937 3.48913,-0.47866 7.27509,-1.20922 11.25986,-2.14538 7.61473,-1.78897 15.79478,-4.29015 23.76388,-7.09944 0.33509,-0.11812 0.67065,-0.23722 1.00661,-0.35726 8.15879,-2.91528 16.37786,-6.3311 23.60683,-9.98505 3.58052,-1.8098 6.85485,-3.64636 9.72585,-5.47669 2.97532,-1.89684 5.48686,-3.76727 7.47441,-5.58929 1.0425,-0.95567 1.94058,-1.89772 2.68825,-2.82486 0.46337,-0.5746 0.86973,-1.14442 1.21713,-1.70913 0.23496,-0.38193 0.44882,-0.77243 0.63634,-1.16987 0.45092,-0.95575 0.75133,-1.95886 0.82031,-2.96554 0.069,-1.00633 -0.0958,-1.969 -0.50485,-2.84853 -0.41486,-0.89209 -1.04608,-1.62579 -1.80704,-2.23268 -0.80679,-0.64345 -1.77394,-1.15627 -2.81806,-1.57698 -2.83662,-1.14297 -6.47402,-1.68282 -8.91479,-1.98932 2.45555,0.6046 5.84986,1.67027 8.21725,3.30388 0.85086,0.58713 1.49992,1.20058 1.93336,1.82044 0.40461,0.57864 0.5858,1.11085 0.62497,1.58915 0.0372,0.45459 -0.0507,0.8948 -0.22446,1.34064 -0.18015,0.46237 -0.47029,0.97312 -0.88315,1.53386 -0.17149,0.23291 -0.36232,0.47196 -0.57244,0.71735 -0.31066,0.36278 -0.67295,0.74805 -1.09367,1.1562 -0.6802,0.65989 -1.50117,1.36799 -2.47965,2.12375 -1.87139,1.44544 -4.24721,3.00972 -7.13532,4.66773 -2.7804,1.59618 -5.95898,3.23512 -9.46404,4.87946 -7.08669,3.32462 -15.1228,6.49143 -23.14492,9.19773 -0.32952,0.11117 -0.65861,0.22142 -0.98721,0.33074 -7.82906,2.60477 -15.84768,4.77024 -23.20929,6.31112 -3.85251,0.80639 -7.44454,1.42507 -10.69903,1.85549 -3.37377,0.44621 -6.28626,0.6773 -8.73728,0.73026 -1.85156,0.04 -3.35882,-0.0231 -4.58908,-0.14739 -0.48128,-0.0486 -0.92136,-0.10426 -1.3278,-0.16789 -0.69877,-0.10939 -1.2492,-0.23504 -1.687,-0.36198 -0.40186,-0.11652 -0.76766,-0.24894 -1.03135,-0.41261 -0.29228,-0.18141 -0.5745,-0.46676 -0.76153,-0.97962 -0.20137,-0.55216 -0.25919,-1.28714 -0.13564,-2.17888 0.14079,-1.01614 0.50046,-2.12446 0.99837,-3.24242 0.68044,-1.52782 1.57315,-2.97069 2.32082,-4.0427 z"
         id="path3"
         transform="matrix(1.7260426,0,0,1.7260426,-195.97097,-193.87952)" /></g></g></svg>
